<svg width="46" height="83" viewBox="0 0 46 83" fill="none" xmlns="http://www.w3.org/2000/svg">
<path d="M45.4842 80.7595C45.4842 81.6695 40.1942 82.4095 33.6542 82.4095C27.1242 82.4095 21.8242 81.6695 21.8242 80.7595C21.8242 79.8495 27.1142 79.1095 33.6542 79.1095C40.1942 79.0995 45.4842 79.8395 45.4842 80.7595Z" fill="url(#paint0_radial_2_4195)"/>
<path d="M43.5133 22.1497C43.5133 10.1697 33.8033 0.449707 21.8133 0.449707C9.83329 0.449707 0.113281 10.1597 0.113281 22.1497C0.113281 26.4597 1.37327 30.4697 3.54327 33.8497C5.81327 37.6897 8.38332 41.5697 11.2133 47.2197C13.0033 50.7897 14.8533 55.0597 16.7033 60.4697C21.3333 73.9497 21.8133 80.9597 21.8133 80.9597C21.8133 80.9597 22.2933 73.9497 26.9233 60.4697C28.7733 55.0597 30.6233 50.7897 32.4133 47.2197C35.2733 41.5097 37.8633 37.5997 40.1533 33.7197C42.2833 30.3697 43.5133 26.3997 43.5133 22.1497Z" fill="#436AB3"/>
<path d="M35.3028 22.1497C35.3028 23.3697 35.1428 24.5497 34.8328 25.6697C34.5628 26.6797 34.1628 27.6497 33.6728 28.5597L33.4428 28.9597C31.1028 32.9197 26.7828 35.5897 21.8428 35.5897C16.9028 35.5897 12.5828 32.9197 10.2428 28.9597L10.0128 28.5597C9.52282 27.6497 9.12278 26.6797 8.85278 25.6697C8.54278 24.5497 8.38281 23.3597 8.38281 22.1497C8.38281 14.7197 14.4028 8.69972 21.8328 8.69972C29.2828 8.68972 35.3028 14.7197 35.3028 22.1497Z" fill="white"/>
<defs>
<radialGradient id="paint0_radial_2_4195" cx="0" cy="0" r="1" gradientUnits="userSpaceOnUse" gradientTransform="translate(27.3836 80.7819) scale(11.8247 1.65354)">
<stop stop-color="#DADADA"/>
<stop offset="1" stop-color="white"/>
</radialGradient>
</defs>
</svg>
