<svg width="46" height="83" viewBox="0 0 46 83" fill="none" xmlns="http://www.w3.org/2000/svg">
<path d="M45.6053 81.0597C45.6053 81.9697 40.3153 82.7097 33.7753 82.7097C27.2453 82.7097 21.9453 81.9697 21.9453 81.0597C21.9453 80.1497 27.2353 79.4097 33.7753 79.4097C40.3053 79.4097 45.6053 80.1497 45.6053 81.0597Z" fill="url(#paint0_radial_2_4187)"/>
<path d="M43.6344 22.4498C43.6344 10.4698 33.9244 0.749756 21.9344 0.749756C9.95439 0.749756 0.234375 10.4598 0.234375 22.4498C0.234375 26.7598 1.49437 30.7697 3.66437 34.1497C5.93437 37.9897 8.50441 41.8697 11.3344 47.5197C13.1244 51.0897 14.9744 55.3597 16.8244 60.7697C21.4544 74.2497 21.9344 81.2598 21.9344 81.2598C21.9344 81.2598 22.4144 74.2497 27.0444 60.7697C28.8944 55.3597 30.7444 51.0897 32.5344 47.5197C35.3944 41.8097 37.9844 37.8997 40.2744 34.0197C42.4044 30.6697 43.6344 26.7098 43.6344 22.4498Z" fill="#00BFDF"/>
<path d="M35.4239 22.4498C35.4239 23.6698 35.2639 24.8498 34.9539 25.9698C34.6839 26.9798 34.2839 27.9498 33.7939 28.8598L33.5639 29.2598C31.2239 33.2198 26.9039 35.8898 21.9639 35.8898C17.0239 35.8898 12.7039 33.2198 10.3639 29.2598L10.1339 28.8598C9.64391 27.9498 9.24388 26.9798 8.97388 25.9698C8.66388 24.8498 8.50391 23.6598 8.50391 22.4498C8.50391 15.0198 14.5239 8.99976 21.9539 8.99976C29.3939 8.99976 35.4239 15.0198 35.4239 22.4498Z" fill="white"/>
<defs>
<radialGradient id="paint0_radial_2_4187" cx="0" cy="0" r="1" gradientUnits="userSpaceOnUse" gradientTransform="translate(27.5009 81.0875) scale(11.8247 1.65355)">
<stop stop-color="#DADADA"/>
<stop offset="1" stop-color="white"/>
</radialGradient>
</defs>
</svg>
