<svg width="47" height="83" viewBox="0 0 47 83" fill="none" xmlns="http://www.w3.org/2000/svg">
<path d="M46.0819 81.0299C46.0819 81.9399 40.7919 82.6799 34.2519 82.6799C27.7219 82.6799 22.4219 81.9399 22.4219 81.0299C22.4219 80.1199 27.7119 79.3799 34.2519 79.3799C40.7919 79.3799 46.0819 80.1199 46.0819 81.0299Z" fill="url(#paint0_radial_2_4223)"/>
<path d="M44.1129 22.4197C44.1129 10.4397 34.4028 0.719727 22.4128 0.719727C10.4228 0.719727 0.712891 10.4297 0.712891 22.4197C0.712891 26.7297 1.97288 30.7397 4.14288 34.1197C6.41288 37.9597 8.98287 41.8397 11.8129 47.4897C13.6029 51.0597 15.4529 55.3297 17.3029 60.7397C21.9329 74.2197 22.4128 81.2297 22.4128 81.2297C22.4128 81.2297 22.8929 74.2197 27.5229 60.7397C29.3729 55.3297 31.2229 51.0597 33.0129 47.4897C35.8729 41.7797 38.4629 37.8697 40.7529 33.9897C42.8929 30.6397 44.1129 26.6697 44.1129 22.4197Z" fill="#6ECFE0"/>
<path d="M35.9024 22.4197C35.9024 23.6397 35.7424 24.8197 35.4324 25.9397C35.1624 26.9497 34.7625 27.9197 34.2725 28.8297L34.0424 29.2297C31.7024 33.1897 27.3824 35.8597 22.4424 35.8597C17.5024 35.8597 13.1824 33.1897 10.8424 29.2297L10.6124 28.8297C10.1224 27.9197 9.72245 26.9497 9.45245 25.9397C9.14245 24.8197 8.98242 23.6297 8.98242 22.4197C8.98242 14.9897 15.0024 8.96973 22.4324 8.96973C29.8824 8.96973 35.9024 14.9897 35.9024 22.4197Z" fill="white"/>
<defs>
<radialGradient id="paint0_radial_2_4223" cx="0" cy="0" r="1" gradientUnits="userSpaceOnUse" gradientTransform="translate(27.9818 81.055) scale(11.8248 1.65355)">
<stop stop-color="#DADADA"/>
<stop offset="1" stop-color="white"/>
</radialGradient>
</defs>
</svg>
