<svg width="47" height="83" viewBox="0 0 47 83" fill="none" xmlns="http://www.w3.org/2000/svg">
<path d="M46.1424 80.8197C46.1424 81.7297 40.8524 82.4697 34.3124 82.4697C27.7824 82.4697 22.4824 81.7297 22.4824 80.8197C22.4824 79.9097 27.7724 79.1697 34.3124 79.1697C40.8524 79.1697 46.1424 79.9097 46.1424 80.8197Z" fill="url(#paint0_radial_2_4191)"/>
<path d="M44.1832 22.2098C44.1832 10.2298 34.4732 0.509766 22.4832 0.509766C10.5032 0.509766 0.783203 10.2198 0.783203 22.2098C0.783203 26.5198 2.0432 30.5298 4.2132 33.9098C6.4832 37.7498 9.05321 41.6298 11.8832 47.2798C13.6732 50.8498 15.5232 55.1198 17.3732 60.5298C22.0032 74.0098 22.4832 81.0198 22.4832 81.0198C22.4832 81.0198 22.9632 74.0098 27.5932 60.5298C29.4432 55.1198 31.2932 50.8498 33.0832 47.2798C35.9432 41.5698 38.5332 37.6598 40.8232 33.7798C42.9532 30.4398 44.1832 26.4698 44.1832 22.2098Z" fill="#F79433"/>
<path d="M35.9632 22.2098C35.9632 23.4298 35.8032 24.6098 35.4932 25.7298C35.2232 26.7398 34.8232 27.7098 34.3332 28.6198L34.1032 29.0198C31.7632 32.9798 27.4432 35.6498 22.5032 35.6498C17.5632 35.6498 13.2432 32.9798 10.9032 29.0198L10.6732 28.6198C10.1832 27.7098 9.78321 26.7398 9.51321 25.7298C9.20321 24.6098 9.04321 23.4198 9.04321 22.2098C9.04321 14.7798 15.0632 8.75977 22.4932 8.75977C29.9432 8.75977 35.9632 14.7898 35.9632 22.2098Z" fill="white"/>
<defs>
<radialGradient id="paint0_radial_2_4191" cx="0" cy="0" r="1" gradientUnits="userSpaceOnUse" gradientTransform="translate(28.0445 80.8496) scale(11.8248 1.65354)">
<stop stop-color="#DADADA"/>
<stop offset="1" stop-color="white"/>
</radialGradient>
</defs>
</svg>
