<svg width="46" height="83" viewBox="0 0 46 83" fill="none" xmlns="http://www.w3.org/2000/svg">
<path d="M45.8729 80.3697C45.8729 81.2797 40.5828 82.0197 34.0428 82.0197C27.5128 82.0197 22.2129 81.2797 22.2129 80.3697C22.2129 79.4597 27.5028 78.7197 34.0428 78.7197C40.5828 78.7197 45.8729 79.4597 45.8729 80.3697Z" fill="url(#paint0_radial_2_4199)"/>
<path d="M43.9137 21.7596C43.9137 9.77958 34.2037 0.0595703 22.2137 0.0595703C10.2337 0.0595703 0.513672 9.76958 0.513672 21.7596C0.513672 26.0696 1.77369 30.0796 3.9437 33.4596C6.2137 37.2996 8.78368 41.1796 11.6137 46.8296C13.4037 50.3996 15.2537 54.6696 17.1037 60.0796C21.7337 73.5596 22.2137 80.5696 22.2137 80.5696C22.2137 80.5696 22.6937 73.5596 27.3237 60.0796C29.1737 54.6696 31.0237 50.3996 32.8137 46.8296C35.6737 41.1196 38.2637 37.2096 40.5537 33.3296C42.6837 29.9796 43.9137 26.0196 43.9137 21.7596Z" fill="#FDB913"/>
<path d="M35.6935 21.7596C35.6935 22.9796 35.5334 24.1596 35.2234 25.2796C34.9534 26.2896 34.5534 27.2596 34.0634 28.1696L33.8335 28.5696C31.4935 32.5296 27.1734 35.1996 22.2334 35.1996C17.2934 35.1996 12.9735 32.5296 10.6335 28.5696L10.4034 28.1696C9.91344 27.2596 9.51344 26.2896 9.24344 25.2796C8.93344 24.1596 8.77344 22.9696 8.77344 21.7596C8.77344 14.3296 14.7934 8.30957 22.2234 8.30957C29.6734 8.30957 35.6935 14.3296 35.6935 21.7596Z" fill="white"/>
<defs>
<radialGradient id="paint0_radial_2_4199" cx="0" cy="0" r="1" gradientUnits="userSpaceOnUse" gradientTransform="translate(27.7733 80.3989) scale(11.8247 1.65355)">
<stop stop-color="#DADADA"/>
<stop offset="1" stop-color="white"/>
</radialGradient>
</defs>
</svg>
