<svg width="141" height="80" viewBox="0 0 141 80" fill="none" xmlns="http://www.w3.org/2000/svg">
<path d="M33.079 37.0809C33.079 37.0809 27.2698 56.4881 26.9497 57.7442C26.6297 59.0003 26.0535 59.8796 24.6772 59.8796H18.0678L11.2984 37.0652L8.57782 59.8796H0L4.65699 26.3411H13.987C15.1072 26.3411 15.8434 27.2046 16.1474 28.2881C16.4515 29.3558 22.1967 49.4538 22.1967 49.4538L28.7901 26.3411H38.0721C39.1923 26.3411 39.8165 27.0162 39.9925 28.2881C40.1685 29.5599 44.3774 59.8796 44.3774 59.8796H35.7836L33.079 37.0809Z" fill="white"/>
<path d="M62.2216 25.6816C52.3795 25.6816 46.7303 29.5285 46.7303 36.3587C46.7303 48.9985 66.1584 43.8641 66.1584 50.129C66.1584 52.547 63.3898 53.7246 57.9327 53.7246C54.2359 53.7246 51.3073 53.2065 47.8665 52.0917C48.1546 54.1486 48.3946 55.9386 48.5867 57.3046C48.7467 58.4822 49.2428 59.3301 50.251 59.5813C52.7476 60.2094 55.3881 60.5705 58.3488 60.5705C68.815 60.5705 74.8963 56.5666 74.8963 49.5323C74.8963 36.9397 55.4681 41.9328 55.4681 35.762C55.4681 33.6109 57.8206 32.5275 62.6857 32.5275C66.3345 32.5275 69.1671 33.0928 72.4478 34.1605C72.4478 34.1605 73.0079 30.2508 73.1199 29.3401C73.2319 28.4294 73.2799 27.6914 72.2557 27.3303C69.135 26.2469 65.8703 25.6816 62.2216 25.6816Z" fill="white"/>
<path d="M95.8286 53.5675C89.6033 53.5675 86.3546 50.1288 86.3546 43.3457C86.3546 36.3585 89.6513 32.6687 96.1007 32.6687C98.5652 32.6687 101.382 33.1868 104.262 34.1603C104.262 34.1603 104.758 30.6432 104.903 29.5755C105.047 28.5235 104.823 27.5814 103.766 27.2202C100.774 26.1996 97.4289 25.6658 94.1322 25.6658C83.2339 25.6658 77.7448 31.7266 77.7448 43.2829C77.7448 54.6352 83.2339 60.539 94.0202 60.539C97.589 60.539 101.046 59.9266 104.182 58.8118C104.951 58.5292 105.095 57.9953 104.951 56.959C104.807 55.9227 104.278 52.0758 104.278 52.0758C101.222 53.0493 98.2931 53.5675 95.8286 53.5675Z" fill="white"/>
<path d="M114.761 17.925L118.505 32.9985C118.793 34.1134 120.074 34.6315 121.05 33.7679L139.79 15.6326C142.318 13.3873 140.19 9.28917 136.845 9.98004L117.961 12.9476C115.657 13.4187 114.2 15.6797 114.761 17.925Z" fill="#F79433"/>
<path d="M118.842 33.6579C118.714 33.5009 118.634 33.2968 118.57 33.077L110.216 4.84555C109.256 1.62673 113.257 -0.759913 115.737 1.53252L132.253 16.8572C134.013 18.4902 134.045 21.2223 132.317 22.8867L121.114 33.7521C121.114 33.7521 120.618 34.2075 119.978 34.2075C119.258 34.2075 118.842 33.6579 118.842 33.6579Z" fill="#00BFDF"/>
<path d="M125.083 17.5481C125.067 17.7993 125.019 18.0348 124.955 18.286L121.418 33.0298C121.258 33.705 120.73 34.1289 120.138 34.1917C120.042 34.2074 119.946 34.2074 119.85 34.1917C119.546 34.1603 119.242 34.0504 118.97 33.8149L94.1163 9.38325C91.8118 7.35775 93.3161 3.79349 96.1167 3.63647C96.5808 3.60507 97.0449 3.71498 97.477 3.872L121.946 12.9632C124.363 13.8425 125.211 15.4755 125.083 17.5481Z" fill="white"/>
<path d="M7.5376 70.4152L5.88925 76.3033H4.03286L2.38451 70.4152L1.60034 76.3033H0L1.12024 68.531H3.20068L4.97706 74.4191L6.73743 68.531H8.80187L9.93811 76.3033H8.32177L7.5376 70.4152Z" fill="#00BFDF"/>
<path d="M11.3942 70.6351H12.9145V76.3033H11.3942V70.6351ZM11.3142 69.1748C11.3142 68.7352 11.6343 68.4683 12.1464 68.4683C12.6745 68.4683 12.9946 68.7352 12.9946 69.1748C12.9946 69.6145 12.6745 69.8971 12.1464 69.8971C11.6183 69.8971 11.3142 69.6302 11.3142 69.1748Z" fill="#00BFDF"/>
<path d="M19.1722 76.0364C18.548 76.319 17.7959 76.4603 17.1077 76.4603C15.1233 76.4603 14.2111 75.3455 14.2111 73.5712C14.2111 71.8127 15.1073 70.478 17.1717 70.478C17.8119 70.478 18.532 70.6036 19.1402 70.902L18.9161 71.9697C18.404 71.7813 18.0359 71.7028 17.6038 71.7028C16.3236 71.7028 15.7795 72.3151 15.7795 73.477C15.7795 74.7018 16.3236 75.2356 17.4918 75.2356C17.9879 75.2356 18.436 75.1414 18.9481 74.953L19.1722 76.0364Z" fill="#00BFDF"/>
<path d="M21.9085 71.7343C22.3886 70.7451 23.2848 70.4468 24.117 70.4468V71.8128C23.0128 71.8128 22.3566 72.064 21.9405 72.5822V76.3035H20.4362V70.6352H21.7485L21.9085 71.7343Z" fill="#00BFDF"/>
<path d="M29.0779 73.4771C29.0779 72.2681 28.6458 71.6872 27.7016 71.6872C26.7414 71.6872 26.2773 72.2524 26.2773 73.4771C26.2773 74.6862 26.7254 75.2671 27.6536 75.2671C28.6298 75.2514 29.0779 74.6862 29.0779 73.4771ZM30.6462 73.4771C30.6462 75.4398 29.622 76.4604 27.5575 76.4604C25.6691 76.4604 24.7089 75.4398 24.7089 73.4771C24.7089 71.5144 25.7331 70.4938 27.7976 70.4938C29.686 70.4781 30.6462 71.4987 30.6462 73.4771Z" fill="#00BFDF"/>
<path d="M37.4002 70.0856C36.6641 69.8187 35.9759 69.6774 35.1118 69.6774C33.8795 69.6774 33.2714 69.9914 33.2714 70.6038C33.2714 72.2682 37.9444 71.0905 37.9444 74.011C37.9444 75.5655 36.6161 76.4448 34.2796 76.4448C33.2554 76.4448 32.3912 76.2721 31.591 75.9266L31.8311 74.7176C32.6152 75.0002 33.3034 75.1259 34.1676 75.1259C35.5598 75.1259 36.28 74.7647 36.28 74.1053C36.28 72.4095 31.607 73.6185 31.607 70.698C31.607 69.1907 32.8393 68.3428 35.0157 68.3428C35.9919 68.3428 36.8401 68.5155 37.6403 68.8609L37.4002 70.0856Z" fill="#00BFDF"/>
<path d="M42.6652 74.7646C42.2491 75.1571 41.817 75.3612 41.3689 75.3612C40.8088 75.3612 40.4407 75.0943 40.4407 74.5918C40.4407 73.9324 41.2569 73.5241 42.6812 73.4613V74.7646H42.6652ZM41.769 70.478C40.8088 70.478 39.9126 70.745 39.1924 71.1846L39.4005 72.1895C40.2007 71.8284 40.8568 71.6713 41.5129 71.6713H41.5449C41.641 71.6713 41.721 71.6713 41.801 71.6871C42.3931 71.7656 42.6652 72.111 42.6652 72.6919V72.849C40.2327 72.8961 38.8724 73.5712 38.8724 74.8902C38.8724 75.8794 39.6085 76.4446 40.7288 76.4446C41.5609 76.4446 42.2651 76.1463 42.7612 75.5496V76.4446H44.1855V74.4819V72.849C44.1855 71.2631 43.4013 70.478 41.769 70.478Z" fill="#00BFDF"/>
<path d="M49.4024 76.3033H47.2739L45.0654 70.635H46.7458L48.3461 75.3455L49.9145 70.635H51.5948L49.4024 76.3033Z" fill="#00BFDF"/>
<path d="M53.6752 72.9275H56.2998C56.2838 72.0482 55.8837 71.5928 55.1315 71.5928C54.4914 71.5928 53.8353 71.8912 53.6752 72.9275ZM57.6441 73.7597H53.6432C53.6912 74.6703 54.0913 75.2356 55.3236 75.2356C55.9317 75.2356 56.5718 75.0943 57.212 74.7646L57.436 75.7852C56.7159 76.2248 55.7077 76.4603 54.8435 76.4603C53.0191 76.4603 52.0749 75.3926 52.0749 73.6654C52.0749 71.6242 53.2431 70.478 55.0675 70.478C56.6359 70.478 57.6761 71.3102 57.6761 73.2729C57.6601 73.4613 57.6601 73.634 57.6441 73.7597Z" fill="#00BFDF"/>
<path d="M67.7106 70.1012C67.0225 69.8343 66.3343 69.693 65.7262 69.693C64.0938 69.693 63.2617 70.6665 63.2617 72.4721C63.2617 74.2307 64.0938 75.1414 65.6942 75.1414C66.3023 75.1414 67.0065 75.0001 67.7266 74.7332L67.9667 75.9422C67.1665 76.2876 66.2543 76.4603 65.3421 76.4603C62.8936 76.4603 61.6453 75.0943 61.6453 72.4564C61.6453 69.7715 62.8936 68.374 65.3741 68.374C66.2863 68.374 67.1825 68.5467 67.9667 68.8922L67.7106 70.1012Z" fill="#00BFDF"/>
<path d="M72.9596 73.4771C72.9596 72.2681 72.5275 71.6872 71.5833 71.6872C70.6231 71.6872 70.159 72.2524 70.159 73.4771C70.159 74.6862 70.6071 75.2671 71.5353 75.2671C72.5115 75.2514 72.9596 74.6862 72.9596 73.4771ZM74.528 73.4771C74.528 75.4398 73.5037 76.4604 71.4393 76.4604C69.5509 76.4604 68.5907 75.4398 68.5907 73.4771C68.5907 71.5144 69.6149 70.4938 71.6794 70.4938C73.5678 70.4781 74.528 71.4987 74.528 73.4771Z" fill="#00BFDF"/>
<path d="M81.1695 72.5977V76.3033H79.6651V72.849C79.6651 72.0325 79.2811 71.6399 78.5769 71.6399C78.0808 71.6399 77.6487 71.8755 77.2646 72.2994V76.3033H75.7603V70.635H77.0726L77.2166 71.5928C77.7127 70.8863 78.4649 70.478 79.2811 70.478C80.4493 70.478 81.1695 71.2474 81.1695 72.5977Z" fill="#00BFDF"/>
<path d="M87.0105 70.7294L86.8184 71.7343C86.3863 71.6087 85.8262 71.5616 85.3621 71.5616C84.578 71.5616 84.0338 71.7186 84.0338 72.174C84.0338 73.2417 87.3305 72.488 87.3305 74.5763C87.3305 75.7382 86.3063 76.4605 84.626 76.4605C83.8098 76.4605 83.0256 76.2721 82.4815 76.0208L82.7055 75.0002C83.1857 75.2044 83.8098 75.3771 84.4659 75.3771C85.2821 75.3771 85.7622 75.0944 85.7622 74.6548C85.7622 73.4929 82.5295 74.3408 82.5295 72.2368C82.5295 71.0748 83.5057 70.4939 85.2181 70.4939C85.8742 70.4782 86.5464 70.5724 87.0105 70.7294Z" fill="#00BFDF"/>
<path d="M93.9083 76.3034H92.596L92.42 75.3927C91.9399 76.0521 91.2357 76.4604 90.3716 76.4604C89.1873 76.4604 88.4832 75.691 88.4832 74.3407V70.6351H90.0035V74.0894C90.0035 74.9059 90.3395 75.2985 91.0437 75.2985C91.5878 75.2985 92.0039 75.0629 92.372 74.639V70.6194H93.8923L93.9083 76.3034Z" fill="#00BFDF"/>
<path d="M97.1086 67.9658H95.6043V76.3034H97.1086V67.9658Z" fill="#00BFDF"/>
<path d="M99.4288 69.0493H100.629V70.6352H101.829V71.7971H100.629V74.5292C100.629 75.0316 100.853 75.2514 101.333 75.2514C101.557 75.2514 101.765 75.2043 101.973 75.0944L102.197 76.1621C101.829 76.382 101.365 76.4762 100.869 76.4762C99.6368 76.4762 99.1247 75.9266 99.1247 74.7176V71.7971V69.065L99.4288 69.0493Z" fill="#00BFDF"/>
<path d="M103.542 70.6351H105.063V76.3033H103.542V70.6351ZM103.462 69.1748C103.462 68.7352 103.782 68.4683 104.294 68.4683C104.823 68.4683 105.143 68.7352 105.143 69.1748C105.143 69.6145 104.823 69.8971 104.294 69.8971C103.766 69.8971 103.462 69.6302 103.462 69.1748Z" fill="#00BFDF"/>
<path d="M112.215 72.5977V76.3033H110.711V72.849C110.711 72.0325 110.327 71.6399 109.623 71.6399C109.127 71.6399 108.694 71.8755 108.31 72.2994V76.3033H106.806V70.635H108.118L108.262 71.5928C108.758 70.8863 109.511 70.478 110.327 70.478C111.495 70.478 112.215 71.2474 112.215 72.5977Z" fill="#00BFDF"/>
<path d="M118.122 71.3259L118.682 70.5251L119.866 71.0747L118.954 72.9589" fill="#00BFDF"/>
<path d="M115.033 72.5037C115.033 73.1631 115.513 73.4772 116.473 73.4772C117.449 73.4772 117.929 73.1631 117.929 72.5037C117.929 71.8442 117.449 71.5302 116.473 71.5302C115.497 71.5302 115.033 71.8442 115.033 72.5037ZM118.298 77.0885C118.298 76.0836 116.521 76.1778 115.161 76.0051C114.873 76.3192 114.713 76.6803 114.713 77.0257C114.713 77.591 115.145 78.1248 116.569 78.1248C117.801 78.1248 118.298 77.6538 118.298 77.0885ZM118.682 71.0591C119.114 71.4046 119.306 71.8913 119.306 72.488C119.306 73.7441 118.426 74.5449 116.473 74.5449C115.881 74.5449 115.385 74.4664 114.985 74.3408C114.905 74.4507 114.857 74.5606 114.857 74.6548C114.857 75.6911 119.866 74.3251 119.866 76.9943C119.866 78.1091 118.922 79.114 116.345 79.114C114.201 79.114 113.24 78.4546 113.24 77.2613C113.24 76.5861 113.561 76.0522 114.041 75.6911C113.753 75.5341 113.593 75.3143 113.593 74.9688C113.593 74.4978 113.945 74.1209 114.265 73.9168C113.833 73.5557 113.641 73.0689 113.641 72.4566C113.641 71.2162 114.521 70.4468 116.489 70.4468C117.273 70.4468 117.897 70.5724 118.346 70.8079" fill="#00BFDF"/>
</svg>
