<svg width="23" height="23" viewBox="0 0 23 23" fill="none" xmlns="http://www.w3.org/2000/svg">
<path d="M22.719 21.3639L16.1784 14.8234C17.4453 13.2584 18.2081 11.2699 18.2081 9.10409C18.2081 4.08439 14.1237 0 9.10405 0C4.08435 0 0 4.08435 0 9.10405C0 14.1237 4.08439 18.2081 9.10409 18.2081C11.2699 18.2081 13.2584 17.4453 14.8234 16.1784L21.3639 22.719C21.5508 22.9058 21.7961 22.9998 22.0415 22.9998C22.2868 22.9998 22.5321 22.9058 22.719 22.719C23.0937 22.3443 23.0937 21.7386 22.719 21.3639ZM9.10409 16.2915C5.14045 16.2915 1.91666 13.0677 1.91666 9.10405C1.91666 5.1404 5.14045 1.91662 9.10409 1.91662C13.0677 1.91662 16.2915 5.1404 16.2915 9.10405C16.2915 13.0677 13.0677 16.2915 9.10409 16.2915Z" fill="white"/>
</svg>
